<?xml version="1.0" encoding="UTF-8"?>
<svg width="128" height="128" viewBox="0 0 128 128" xmlns="http://www.w3.org/2000/svg">
  <!-- Background with 80s gradient -->
  <defs>
    <linearGradient id="bgGradient" x1="0%" y1="0%" x2="100%" y2="100%">
      <stop offset="0%" style="stop-color:#ff00ff"/>
      <stop offset="50%" style="stop-color:#00ffff"/>
      <stop offset="100%" style="stop-color:#ff00ff"/>
    </linearGradient>
    <filter id="glow" x="-20%" y="-20%" width="140%" height="140%">
      <feGaussianBlur stdDeviation="2" result="blur"/>
      <feComposite in="SourceGraphic" in2="blur" operator="over"/>
    </filter>
  </defs>

  <!-- Background -->
  <rect width="128" height="128" rx="20" fill="url(#bgGradient)"/>

  <!-- Grid pattern for 80s effect -->
  <pattern id="grid" width="20" height="20" patternUnits="userSpaceOnUse">
    <path d="M 20 0 L 0 0 0 20" fill="none" stroke="white" stroke-width="0.5" opacity="0.3"/>
  </pattern>
  <rect width="128" height="128" fill="url(#grid)"/>

  <!-- Paintbrush -->
  <g transform="translate(64, 64) rotate(-30)">
    <!-- Brush handle -->
    <rect x="-8" y="-40" width="16" height="80" rx="8" fill="#8B4513"/>
    <!-- Brush tip -->
    <path d="M-20 40 Q-10 60 0 40 Q10 60 20 40 L20 30 L-20 30 Z" fill="#FF69B4"/>
    <!-- Brush bristles -->
    <path d="M-18 30 Q-9 45 0 30 Q9 45 18 30" fill="#FF1493" opacity="0.7"/>
  </g>

  <!-- Sunglasses -->
  <g transform="translate(64, 64) rotate(-30)">
    <!-- Left lens -->
    <ellipse cx="-15" cy="-5" rx="12" ry="8" fill="#000" opacity="0.8"/>
    <!-- Right lens -->
    <ellipse cx="15" cy="-5" rx="12" ry="8" fill="#000" opacity="0.8"/>
    <!-- Bridge -->
    <rect x="-3" y="-9" width="6" height="2" fill="#000"/>
    <!-- Arms -->
    <rect x="-27" y="-5" width="12" height="2" fill="#000"/>
    <rect x="15" y="-5" width="12" height="2" fill="#000"/>
    <!-- Reflection -->
    <ellipse cx="-15" cy="-5" rx="4" ry="2" fill="white" opacity="0.3"/>
    <ellipse cx="15" cy="-5" rx="4" ry="2" fill="white" opacity="0.3"/>
  </g>

  <!-- Paint splatter effects -->
  <g filter="url(#glow)">
    <circle cx="30" cy="30" r="5" fill="#FF00FF" opacity="0.6"/>
    <circle cx="90" cy="40" r="4" fill="#00FFFF" opacity="0.6"/>
    <circle cx="40" cy="90" r="6" fill="#FF00FF" opacity="0.6"/>
    <circle cx="100" cy="100" r="3" fill="#00FFFF" opacity="0.6"/>
  </g>

  <!-- 80s style border -->
  <rect width="128" height="128" rx="20" fill="none" stroke="white" stroke-width="2" stroke-dasharray="4 4"/>
</svg>